<?xml version="1.0" standalone="no"?>
<!DOCTYPE svg PUBLIC "-//W3C//DTD SVG 20010904//EN"
 "http://www.w3.org/TR/2001/REC-SVG-20010904/DTD/svg10.dtd">
<svg version="1.0" xmlns="http://www.w3.org/2000/svg"
 width="1332.000000pt" height="1332.000000pt" viewBox="0 0 1332.000000 1332.000000"
 preserveAspectRatio="xMidYMid meet">
<metadata>
Created by potrace 1.11, written by Peter Selinger 2001-2013
</metadata>
<g transform="translate(0.000000,1332.000000) scale(0.100000,-0.100000)"
fill="#000000" stroke="none">
<path d="M6630 12726 c-30 -18 -179 -104 -330 -191 -151 -87 -300 -172 -330
-190 -63 -37 -255 -148 -445 -257 -71 -41 -206 -119 -300 -173 -93 -54 -287
-166 -430 -248 -520 -300 -979 -565 -1120 -647 -183 -106 -526 -304 -935 -540
-357 -206 -577 -333 -935 -540 -248 -143 -345 -199 -407 -235 l-68 -39 0
-3082 c0 -2922 1 -3082 18 -3096 9 -8 82 -52 162 -98 80 -46 188 -108 240
-138 52 -30 124 -71 160 -92 36 -20 137 -79 225 -130 88 -51 189 -110 225
-130 36 -20 110 -63 165 -95 114 -66 403 -233 485 -280 30 -18 98 -57 150 -87
52 -30 185 -107 295 -170 110 -64 288 -166 395 -228 107 -62 251 -145 320
-185 69 -40 168 -97 220 -127 126 -73 459 -265 695 -401 105 -60 249 -144 320
-185 72 -41 203 -117 293 -169 89 -51 218 -126 285 -165 67 -38 210 -121 317
-183 107 -62 242 -140 300 -173 l105 -61 40 23 c22 12 117 67 210 121 94 54
199 115 235 135 36 21 137 79 225 130 88 51 189 110 225 130 36 20 137 78 225
130 88 51 189 110 225 130 36 20 137 78 225 129 150 87 457 264 885 511 102
59 246 142 320 185 74 43 218 127 320 185 102 59 244 141 315 182 72 41 173
100 225 130 93 53 222 128 493 285 72 42 204 118 292 168 88 51 246 142 350
202 105 60 251 145 325 187 74 43 152 89 173 102 l37 24 0 3094 0 3094 -102
60 c-57 33 -276 160 -488 282 -212 122 -488 282 -615 355 -126 73 -360 208
-520 301 -159 92 -390 225 -513 296 -122 70 -322 186 -445 256 -122 71 -314
182 -427 247 -113 65 -349 201 -525 302 -309 179 -557 322 -1000 578 -489 283
-701 404 -715 409 -8 3 -40 -9 -70 -28z"/>
</g>
</svg>
